# 3ds Max Wavefront OBJ Exporter v0.99 - (c)2007 guruware
# File Created: 10.11.2022 16:05:17

#
# object Plane001
#

v  -10.6409 1.3840 20.0151
v  -10.6104 1.3840 27.7526
v  -10.0708 1.8988 27.9223
v  -9.9508 1.8988 19.9623
v  -9.6542 1.3840 27.8261
v  -9.3047 1.3840 19.9587
v  -20.3684 1.3957 15.1514
v  -18.2743 0.7745 19.3118
v  -16.8959 0.7745 19.9623
v  -16.8959 1.3957 15.1514
v  -11.4567 1.0463 20.0151
v  -13.9729 1.5064 15.1514
v  -10.4077 1.5064 19.9666
v  -10.4077 1.5064 15.1514
v  -9.5143 1.5651 19.9620
v  -8.3825 1.0463 19.9587
v  -5.9254 1.5064 15.1514
v  -9.4923 1.5064 15.1514
v  -3.0057 0.7745 19.9623
v  -3.0057 1.3957 15.1514
v  -1.4425 0.7745 18.4802
v  0.4669 1.3957 15.1514
v  -22.7493 1.3957 9.8742
v  -21.8024 0.7745 14.7619
v  -20.3684 1.3957 10.3406
v  -16.8959 1.3957 10.3406
v  -13.9729 1.5064 10.3406
v  -10.4077 1.5064 10.3406
v  -5.9254 1.5064 10.3406
v  -9.4923 1.5064 10.3406
v  -3.0057 1.3957 10.3406
v  0.4669 1.3957 10.3406
v  1.8588 0.7745 13.3694
v  3.1288 1.3957 9.6729
v  -23.8410 1.3957 5.5298
v  -20.3684 1.3957 5.5298
v  -16.8959 1.3957 5.5298
v  -13.9729 1.5064 5.5298
v  -10.4077 1.5064 5.5298
v  -5.9254 1.5064 5.5298
v  -9.4923 1.5064 5.5298
v  -3.0057 1.3957 5.5298
v  0.4669 1.3957 5.5298
v  3.9394 1.3957 5.5298
v  -22.5513 0.7745 1.6853
v  -20.3684 1.3957 0.7190
v  -16.8959 1.3957 0.7190
v  -13.9729 1.5064 0.7190
v  -10.4077 1.5064 0.7190
v  -5.9254 1.5064 0.7190
v  -9.4923 1.5064 0.7190
v  -3.0057 1.3957 0.7190
v  0.4669 1.3957 0.7190
v  2.1768 0.7745 1.6352
v  -19.5972 0.7745 -2.6876
v  -16.8959 0.7745 -4.0919
v  -13.9729 1.5064 -4.0919
v  -10.4077 1.5064 -4.0919
v  -5.9254 1.5064 -4.0919
v  -9.4923 1.5064 -4.0919
v  -3.0057 0.7745 -4.0919
v  -0.8139 0.7745 -2.6451
v  -15.8622 0.7745 -7.3800
v  -13.9729 1.5064 -8.9027
v  -10.4077 1.5064 -8.9027
v  -5.9254 1.5064 -8.9027
v  -9.4923 1.5064 -8.9027
v  -4.5515 0.7745 -7.5952
v  -12.9460 1.5064 -11.6551
v  -10.4077 1.5064 -13.3378
v  -7.5989 1.5064 -11.7980
v  -9.4923 1.5064 -13.3197
v  -18.2743 0.2868 19.3118
v  -16.8959 0.2868 19.9623
v  -11.4567 0.2868 20.0151
v  -10.5592 0.2868 27.7526
v  -10.8864 0.7745 27.7526
v  -10.0708 0.2868 27.9223
v  -10.0708 0.7745 27.9223
v  -9.6821 0.2868 27.8261
v  -9.2445 0.7745 27.8261
v  -8.3825 0.2868 19.9587
v  -3.0057 0.2868 19.9623
v  -1.4425 0.2868 18.4802
v  0.4669 0.2868 15.1514
v  1.8588 0.2868 13.3694
v  3.1288 0.2868 9.6729
v  3.9394 0.2868 5.5298
v  2.1768 0.2868 1.6352
v  0.4669 0.2868 0.7190
v  -0.8139 0.2868 -2.6451
v  -3.0057 0.2868 -4.0919
v  -4.5515 0.2868 -7.5952
v  -6.4782 0.2868 -8.9027
v  -7.5989 0.2868 -11.7980
v  -9.9492 0.2868 -13.7135
v  -9.9500 0.6525 -13.7135
v  -12.9460 0.2868 -11.6551
v  -13.4233 0.2868 -8.9027
v  -15.8622 0.2868 -7.3800
v  -16.8959 0.2868 -4.0919
v  -19.5972 0.2868 -2.6876
v  -20.3684 0.2868 0.7190
v  -22.5513 0.2868 1.6853
v  -23.8410 0.2868 5.5298
v  -22.7493 0.2868 9.8742
v  -21.8024 0.2868 14.7619
v  -20.3684 0.2868 15.1514
v  -9.9552 0.8964 19.9623
v  -9.9280 1.9350 19.9623
v  -9.9500 1.9936 15.1514
v  -9.9500 1.9936 10.3406
v  -9.9500 1.9936 5.5298
v  -9.9500 1.9936 0.7190
v  -9.9500 1.9936 -4.0919
v  -9.9500 1.9936 -8.9027
v  -9.9500 1.5430 -13.2947
# 117 vertices

vn -0.3854 0.7122 0.5868
vn -0.7551 0.4829 0.4434
vn 0.0311 0.7861 0.6174
vn 0.0056 0.8009 -0.5988
vn 0.7844 0.5562 0.2746
vn 0.3552 0.6354 0.6856
vn -0.4386 0.8037 0.4022
vn -0.5582 0.5574 0.6146
vn -0.1896 0.6094 0.7699
vn -0.0189 0.9978 0.0642
vn -0.5147 0.7445 0.4253
vn -0.0217 0.9983 0.0534
vn -0.3451 0.5752 0.7416
vn -0.3970 0.9178 -0.0000
vn 0.3701 0.5618 0.7399
vn 0.5048 0.7359 0.4512
vn 0.0217 0.9983 0.0539
vn 0.3960 0.9183 -0.0047
vn 0.3091 0.5795 0.7541
vn 0.0189 0.9978 0.0642
vn 0.6737 0.4669 0.5728
vn 0.5686 0.7294 0.3803
vn -0.6705 0.7189 0.1834
vn -0.6970 0.3927 0.6000
vn 0.0000 1.0000 -0.0000
vn -0.0189 0.9998 -0.0000
vn 0.0189 0.9998 -0.0000
vn 0.3970 0.9178 -0.0000
vn 0.8520 0.2717 0.4476
vn 0.6815 0.6981 0.2196
vn -0.7443 0.6642 -0.0695
vn 0.7433 0.6577 -0.1224
vn -0.6812 0.4208 -0.5992
vn -0.4501 0.8186 -0.3568
vn -0.0189 0.9978 -0.0642
vn 0.0189 0.9978 -0.0642
vn 0.4756 0.7926 -0.3815
vn 0.6948 0.3690 -0.6173
vn -0.6475 0.5348 -0.5429
vn -0.5569 0.7111 -0.4292
vn -0.1224 0.9925 -0.0000
vn 0.1225 0.9925 -0.0000
vn 0.5762 0.6805 -0.4526
vn 0.6382 0.5303 -0.5582
vn -0.7692 0.4427 -0.4609
vn -0.6066 0.6669 -0.4328
vn 0.6163 0.6379 -0.4618
vn 0.8009 0.3303 -0.4996
vn -0.5992 0.6438 -0.4759
vn -0.2811 0.7025 -0.6538
vn 0.5649 0.6680 -0.4845
vn 0.3389 0.6848 -0.6451
vn -0.6980 0.0000 0.7161
vn -0.2234 0.0000 0.9747
vn -0.6687 0.0000 0.7436
vn -0.6150 -0.4127 0.6720
vn -0.8132 -0.0750 0.5772
vn -0.0458 0.0000 0.9990
vn -0.0446 0.0000 0.9990
vn 0.5062 -0.4543 0.7331
vn 0.7979 -0.0676 0.5990
vn 0.6467 0.0000 0.7628
vn 0.3701 0.0000 0.9290
vn 0.7860 0.0000 0.6182
vn 0.8299 0.0000 0.5580
vn 0.8790 0.0000 0.4768
vn 0.9659 0.0000 0.2591
vn 0.9933 0.0000 -0.1156
vn 0.7304 0.0000 -0.6830
vn 0.7509 0.0000 -0.6604
vn 0.7803 0.0000 -0.6253
vn 0.7639 0.0000 -0.6454
vn 0.7680 0.0000 -0.6405
vn 0.7603 -0.3446 -0.5507
vn 0.8091 0.0000 -0.5876
vn 0.0418 0.0001 -0.9991
vn 0.0095 0.0821 -0.9966
vn -0.8417 0.0000 -0.5399
vn -0.8004 -0.3606 -0.4789
vn -0.7908 0.0000 -0.6120
vn -0.7661 0.0000 -0.6427
vn -0.7918 0.0000 -0.6108
vn -0.7723 0.0000 -0.6352
vn -0.7392 0.0000 -0.6734
vn -0.9993 0.0000 -0.0387
vn -0.9762 0.0000 0.2170
vn -0.7327 0.0000 0.6805
vn -0.6325 0.0000 0.7745
vn 0.2018 -0.9794 -0.0023
vn 0.0029 0.8094 0.5873
vn -0.0011 1.0000 0.0061
vn -0.0001 1.0000 -0.0000
vn -0.0001 0.9988 -0.0499
vn 0.0103 0.8344 -0.5511
# 94 vertex normals

vt 0.3750 0.1250 0.0000
vt 0.3750 0.0000 0.0000
vt 0.5000 0.0000 0.0000
vt 0.5000 0.1250 0.0000
vt 0.6250 0.0000 0.0000
vt 0.6250 0.1250 0.0000
vt 0.1250 0.2500 0.0000
vt 0.1250 0.1250 0.0000
vt 0.2500 0.1250 0.0000
vt 0.2500 0.2500 0.0000
vt 0.3750 0.2500 0.0000
vt 0.4899 0.1250 0.0000
vt 0.4956 0.2500 0.0000
vt 0.5097 0.1250 0.0000
vt 0.6250 0.2500 0.0000
vt 0.5044 0.2500 0.0000
vt 0.7500 0.1250 0.0000
vt 0.7500 0.2500 0.0000
vt 0.8750 0.1250 0.0000
vt 0.8750 0.2500 0.0000
vt 0.0000 0.3750 0.0000
vt 0.0000 0.2500 0.0000
vt 0.1250 0.3750 0.0000
vt 0.2500 0.3750 0.0000
vt 0.3750 0.3750 0.0000
vt 0.4956 0.3750 0.0000
vt 0.6250 0.3750 0.0000
vt 0.5044 0.3750 0.0000
vt 0.7500 0.3750 0.0000
vt 0.8750 0.3750 0.0000
vt 1.0000 0.2500 0.0000
vt 1.0000 0.3750 0.0000
vt 0.0000 0.5000 0.0000
vt 0.1250 0.5000 0.0000
vt 0.2500 0.5000 0.0000
vt 0.3750 0.5000 0.0000
vt 0.4956 0.5000 0.0000
vt 0.6250 0.5000 0.0000
vt 0.5044 0.5000 0.0000
vt 0.7500 0.5000 0.0000
vt 0.8750 0.5000 0.0000
vt 1.0000 0.5000 0.0000
vt 0.0000 0.6250 0.0000
vt 0.1250 0.6250 0.0000
vt 0.2500 0.6250 0.0000
vt 0.3750 0.6250 0.0000
vt 0.4956 0.6250 0.0000
vt 0.6250 0.6250 0.0000
vt 0.5044 0.6250 0.0000
vt 0.7500 0.6250 0.0000
vt 0.8750 0.6250 0.0000
vt 1.0000 0.6250 0.0000
vt 0.1250 0.7500 0.0000
vt 0.2500 0.7500 0.0000
vt 0.3750 0.7500 0.0000
vt 0.4956 0.7500 0.0000
vt 0.6250 0.7500 0.0000
vt 0.5044 0.7500 0.0000
vt 0.7500 0.7500 0.0000
vt 0.8750 0.7500 0.0000
vt 0.2500 0.8750 0.0000
vt 0.3750 0.8750 0.0000
vt 0.4956 0.8750 0.0000
vt 0.6250 0.8750 0.0000
vt 0.5044 0.8750 0.0000
vt 0.7500 0.8750 0.0000
vt 0.3750 1.0000 0.0000
vt 0.4941 1.0000 0.0000
vt 0.6250 1.0000 0.0000
vt 0.5075 1.0000 0.0000
vt 0.5000 1.0000 0.0000
vt 0.5000 0.2500 0.0000
vt 0.5000 0.3750 0.0000
vt 0.5000 0.5000 0.0000
vt 0.5000 0.6250 0.0000
vt 0.5000 0.7500 0.0000
vt 0.5000 0.8750 0.0000
# 77 texture coords

o Plane001
g Plane001
s 1
f 1/1/1 2/2/2 3/3/3 4/4/4 
f 4/4/4 3/3/3 5/5/5 6/6/6 
f 7/7/7 8/8/8 9/9/9 10/10/10 
f 10/10/10 9/9/9 11/1/11 12/11/12 
f 12/11/12 11/1/11 13/12/13 14/13/14 
f 15/14/15 16/6/16 17/15/17 18/16/18 
f 17/15/17 16/6/16 19/17/19 20/18/20 
f 20/18/20 19/17/19 21/19/21 22/20/22 
f 23/21/23 24/22/24 7/7/7 25/23/25 
f 25/23/25 7/7/7 10/10/10 26/24/26 
f 26/24/26 10/10/10 12/11/12 27/25/26 
f 27/25/26 12/11/12 14/13/14 28/26/14 
f 18/16/18 17/15/17 29/27/27 30/28/28 
f 29/27/27 17/15/17 20/18/20 31/29/27 
f 31/29/27 20/18/20 22/20/22 32/30/25 
f 32/30/25 22/20/22 33/31/29 34/32/30 
f 35/33/31 23/21/23 25/23/25 36/34/25 
f 36/34/25 25/23/25 26/24/26 37/35/26 
f 37/35/26 26/24/26 27/25/26 38/36/26 
f 38/36/26 27/25/26 28/26/14 39/37/14 
f 30/28/28 29/27/27 40/38/27 41/39/28 
f 40/38/27 29/27/27 31/29/27 42/40/27 
f 42/40/27 31/29/27 32/30/25 43/41/25 
f 43/41/25 32/30/25 34/32/30 44/42/32 
f 45/43/33 35/33/31 36/34/25 46/44/34 
f 46/44/34 36/34/25 37/35/26 47/45/35 
f 47/45/35 37/35/26 38/36/26 48/46/26 
f 48/46/26 38/36/26 39/37/14 49/47/14 
f 41/39/28 40/38/27 50/48/27 51/49/28 
f 50/48/27 40/38/27 42/40/27 52/50/36 
f 52/50/36 42/40/27 43/41/25 53/51/37 
f 53/51/37 43/41/25 44/42/32 54/52/38 
f 55/53/39 46/44/34 47/45/35 56/54/40 
f 56/54/40 47/45/35 48/46/26 57/55/41 
f 57/55/41 48/46/26 49/47/14 58/56/14 
f 51/49/28 50/48/27 59/57/42 60/58/28 
f 59/57/42 50/48/27 52/50/36 61/59/43 
f 61/59/43 52/50/36 53/51/37 62/60/44 
f 63/61/45 56/54/40 57/55/41 64/62/46 
f 64/62/46 57/55/41 58/56/14 65/63/14 
f 60/58/28 59/57/42 66/64/47 67/65/28 
f 66/64/47 59/57/42 61/59/43 68/66/48 
f 69/67/49 64/62/46 65/63/14 70/68/50 
f 67/65/28 66/64/47 71/69/51 72/70/52 
s off
f 73/8/53 74/9/54 9/9/9 8/8/8 
f 74/9/54 75/1/55 11/1/11 9/9/9 
f 75/1/55 76/2/56 77/2/57 11/1/11 
f 76/2/56 78/3/58 79/3/59 77/2/57 
f 78/3/58 80/5/60 81/5/61 79/3/59 
f 80/5/60 82/6/62 16/6/16 81/5/61 
f 82/6/62 83/17/63 19/17/19 16/6/16 
f 83/17/63 84/19/64 21/19/21 19/17/19 
f 84/19/64 85/20/65 22/20/22 21/19/21 
f 85/20/65 86/31/66 33/31/29 22/20/22 
f 86/31/66 87/32/67 34/32/30 33/31/29 
f 87/32/67 88/42/68 44/42/32 34/32/30 
f 88/42/68 89/52/69 54/52/38 44/42/32 
f 89/52/69 90/51/70 53/51/37 54/52/38 
f 90/51/70 91/60/71 62/60/44 53/51/37 
f 91/60/71 92/59/72 61/59/43 62/60/44 
f 92/59/72 93/66/73 68/66/48 61/59/43 
f 93/66/73 94/64/74 66/64/47 68/66/48 
f 94/64/74 95/69/75 71/69/51 66/64/47 
f 95/69/75 96/71/76 97/71/77 72/70/52 71/69/51 
f 96/71/76 98/67/78 69/67/49 70/68/50 97/71/77 
f 98/67/78 99/62/79 64/62/46 69/67/49 
f 99/62/79 100/61/80 63/61/45 64/62/46 
f 100/61/80 101/54/81 56/54/40 63/61/45 
f 101/54/81 102/53/82 55/53/39 56/54/40 
f 102/53/82 103/44/83 46/44/34 55/53/39 
f 103/44/83 104/43/84 45/43/33 46/44/34 
f 104/43/84 105/33/85 35/33/31 45/43/33 
f 105/33/85 106/21/86 23/21/23 35/33/31 
f 106/21/86 107/22/87 24/22/24 23/21/23 
f 107/22/87 108/7/88 7/7/7 24/22/24 
f 108/7/88 73/8/53 8/8/8 7/7/7 
f 13/12/13 11/1/11 1/1/1 4/4/4 109/4/89 
f 11/1/11 77/2/57 2/2/2 1/1/1 
f 77/2/57 79/3/59 3/3/3 2/2/2 
f 79/3/59 81/5/61 5/5/5 3/3/3 
f 81/5/61 16/6/16 6/6/6 5/5/5 
f 16/6/16 15/14/15 109/4/89 4/4/4 6/6/6 
f 13/12/13 110/4/90 111/72/91 14/13/14 
f 18/16/18 111/72/91 110/4/90 15/14/15 
f 14/13/14 111/72/91 112/73/92 28/26/14 
f 30/28/28 112/73/92 111/72/91 18/16/18 
f 28/26/14 112/73/92 113/74/92 39/37/14 
f 41/39/28 113/74/92 112/73/92 30/28/28 
f 39/37/14 113/74/92 114/75/92 49/47/14 
f 51/49/28 114/75/92 113/74/92 41/39/28 
f 49/47/14 114/75/92 115/76/92 58/56/14 
f 60/58/28 115/76/92 114/75/92 51/49/28 
f 58/56/14 115/76/92 116/77/93 65/63/14 
f 67/65/28 116/77/93 115/76/92 60/58/28 
f 65/63/14 116/77/93 117/71/94 70/68/50 
f 72/70/52 117/71/94 116/77/93 67/65/28 
f 97/71/77 117/71/94 72/70/52 
f 70/68/50 117/71/94 97/71/77 
f 109/4/89 110/4/90 13/12/13 
f 15/14/15 110/4/90 109/4/89 
# 96 polygons - 4 triangles

