# 3ds Max Wavefront OBJ Exporter v0.99 - (c)2007 guruware
# File Created: 10.11.2022 14:24:21

mtllib Rock 1.mtl

#
# object Box001
#

v  2.7865 -0.2310 11.8189
v  2.7865 0.1254 -5.9490
v  29.8258 0.1254 -5.8578
v  23.1233 0.1254 8.4418
v  22.7720 0.1211 8.7013
v  7.8170 10.0349 8.6627
v  19.7758 10.3841 7.0752
v  20.1713 10.3438 6.8456
v  26.6815 8.2423 -1.8410
v  6.2561 11.2095 -5.9490
v  27.9883 0.2378 -12.8199
v  4.9157 0.1878 -12.8199
v  9.0054 4.6928 -13.0883
v  18.1928 3.0205 -13.5200
v  -4.2199 0.4312 -4.7353
v  -4.2199 0.3380 9.8763
v  -1.2825 7.8732 3.1119
v  0.0183 12.1080 -4.7353
v  1.5015 2.2422 12.9867
v  5.3958 11.3453 9.6453
v  1.3239 10.2962 7.4359
v  -1.2442 7.7150 9.9168
v  22.0798 -0.2872 7.2991
v  19.0839 9.9787 5.6787
# 24 vertices

vn 0.1058 -0.7387 0.6656
vn -0.3671 -0.7928 -0.4866
vn 0.8678 -0.4970 -0.0027
vn 0.0316 -0.5354 0.8440
vn 0.8572 -0.4817 0.1821
vn 0.1552 0.7918 0.5907
vn 0.6139 0.7475 0.2536
vn -0.1018 0.7308 0.6749
vn 0.7614 0.6480 0.0189
vn -0.0736 0.8440 -0.5312
vn 0.7778 -0.1230 -0.6163
vn -0.6739 -0.3771 -0.6354
vn -0.1791 0.4470 -0.8764
vn 0.0162 0.1039 -0.9945
vn -0.7244 -0.4595 -0.5139
vn -0.7573 -0.4419 0.4808
vn -0.7465 0.6468 0.1560
vn -0.3915 0.8520 -0.3477
vn -0.3425 -0.2947 0.8921
vn 0.1527 0.9127 0.3791
vn -0.3309 0.9382 -0.1011
vn -0.6273 0.6732 0.3914
vn 0.3128 0.7391 0.5966
vn 0.6018 -0.2972 0.7413
# 24 vertex normals

vt 1.0000 0.0000 0.0000
vt 1.0000 1.0000 0.0000
vt 0.0000 1.0000 0.0000
vt 0.0000 0.0152 0.0000
vt 0.0122 0.0000 0.0000
vt 0.0000 0.0000 0.0000
vt 0.9797 0.0000 0.0000
vt 1.0000 0.0221 0.0000
vt 0.9878 0.0000 0.0000
vt 0.9797 1.0000 0.0000
vt 0.0152 0.0000 0.0000
vt 0.0221 1.0000 0.0000
# 12 texture coords

o Box001
g Box001
usemtl wire_086086086
s 2
f 1/1/1 2/2/2 3/3/3 4/4/4 5/5/5 
s 4
f 6/6/6 7/7/7 8/8/8 9/2/9 10/3/10 
s 8
f 1/6/1 5/9/5 7/10/7 6/3/6 
s 16
f 4/11/4 3/1/3 9/2/9 8/12/8 
s 32
f 11/6/11 12/1/12 13/2/13 14/3/14 
s 64
f 15/6/15 16/1/16 17/2/17 18/3/18 
s off
f 2/6/2 1/1/1 16/1/16 15/6/15 
f 19/1/19 20/2/20 21/2/21 22/1/22 
f 6/2/6 10/3/10 18/3/18 17/2/17 
f 10/3/10 2/6/2 15/6/15 18/3/18 
f 3/6/3 2/1/2 12/1/12 11/6/11 
f 2/1/2 10/2/10 13/2/13 12/1/12 
f 10/2/10 9/3/9 14/3/14 13/2/13 
f 9/3/9 3/6/3 11/6/11 14/3/14 
f 1/1/1 6/2/6 20/2/20 19/1/19 
f 6/2/6 17/2/17 21/2/21 20/2/20 
f 17/2/17 16/1/16 22/1/22 21/2/21 
f 16/1/16 1/1/1 19/1/19 22/1/22 
f 4/4/4 23/6/23 5/5/5 
f 7/7/7 24/1/24 8/8/8 
f 5/9/5 23/1/23 24/2/24 7/10/7 
f 8/12/8 24/3/24 23/6/23 4/11/4 
# 20 polygons - 2 triangles

