# 3ds Max Wavefront OBJ Exporter v0.99 - (c)2007 guruware
# File Created: 19.01.2023 14:33:23

#
# object Sphere001
#

v  -3.5005 18.9376 1.4835
v  -5.8378 19.0126 -2.9217
v  -10.9711 19.0126 -5.3280
v  -10.2348 19.0126 0.1407
v  -8.8689 19.0126 3.4899
v  -2.0784 14.6705 1.4748
v  -8.8899 14.7456 8.2864
v  -2.0784 11.8635 12.0041
v  6.2184 10.4315 8.2864
v  6.7903 10.3429 1.4748
v  4.7332 11.9448 -5.3367
v  -2.0784 14.7456 -10.4793
v  0.5213 4.5287 -12.1483
v  -11.7114 4.5287 -8.1582
v  -14.4490 14.7456 -7.6579
v  -22.4830 12.5223 -2.5773
v  -19.7579 4.5287 -8.1582
v  -23.7480 4.5287 1.4748
v  -22.1539 12.5801 1.4748
v  -19.7579 4.5287 11.1078
v  -16.9365 11.0303 8.1302
v  -11.7114 4.5287 11.1078
v  -2.0784 4.5287 15.0979
v  7.5546 4.5287 11.1078
v  11.5447 4.5287 1.4748
v  7.5546 4.5287 -8.1582
v  -2.0784 0.5228 -8.1582
v  -5.5408 0.5228 -10.6215
v  -15.3633 0.5228 -9.5524
v  -19.7579 0.5228 1.4748
v  -16.9365 0.5228 10.1609
v  -8.8899 0.5228 10.2318
v  -2.0784 0.5228 12.5444
v  8.5491 0.5228 8.2864
v  12.3686 0.5228 1.4748
v  4.7332 0.5228 -5.3367
v  -2.0784 0.2400 1.4748
v  -11.7114 0.5228 1.4748
v  -11.7114 14.7456 1.4748
# 39 vertices

vn 0.6709 0.6740 0.3092
vn 0.2165 0.9586 -0.1848
vn -0.2025 0.7912 -0.5770
vn -0.5643 0.8135 0.1407
vn -0.3292 0.8394 0.4325
vn 0.6351 0.7347 0.2386
vn -0.1652 0.7480 0.6428
vn 0.1205 0.6727 0.7300
vn 0.6755 0.6460 0.3555
vn 0.6438 0.7651 0.0102
vn 0.6703 0.7022 -0.2402
vn 0.2555 0.6244 -0.7381
vn 0.1549 -0.2786 -0.9478
vn -0.1250 0.2307 -0.9650
vn -0.5283 0.4944 -0.6903
vn -0.8788 0.4319 -0.2031
vn -0.5827 -0.0279 -0.8122
vn -0.9650 -0.2622 0.0000
vn -0.6873 0.6572 0.3093
vn -0.6081 -0.0028 0.7938
vn -0.4041 0.6241 0.6687
vn -0.1463 0.0067 0.9892
vn 0.0000 -0.0759 0.9971
vn 0.6479 0.0373 0.7608
vn 0.9127 0.4085 0.0000
vn 0.7389 -0.1294 -0.6612
vn 0.1656 -0.9410 -0.2951
vn 0.3586 -0.2874 -0.8882
vn -0.2776 -0.6231 -0.7312
vn -0.4507 -0.8925 -0.0176
vn -0.2809 -0.7688 0.5744
vn -0.1236 -0.8435 0.5228
vn 0.0172 -0.8258 0.5637
vn 0.5119 -0.7303 0.4524
vn 0.8510 -0.5084 -0.1315
vn 0.2257 -0.8995 -0.3740
vn -0.0029 -1.0000 -0.0017
vn -0.0110 -0.9999 -0.0007
vn -0.5902 0.7783 0.2143
# 39 vertex normals

vt 0.9990 0.1803 0.0000
vt 0.9603 0.2531 0.0000
vt 0.8755 0.2929 0.0000
vt 0.9781 0.4809 0.0000
vt 0.8545 0.5935 0.0000
vt 0.8667 0.5031 0.0000
vt 0.8893 0.4477 0.0000
vt 0.1086 0.3640 0.0000
vt 0.0000 0.2476 0.0000
vt 0.1214 0.1843 0.0000
vt 0.2598 0.2475 0.0000
vt 0.1217 0.3573 0.0000
vt 0.2757 0.2446 0.0000
vt 0.2848 0.3573 0.0000
vt 0.2146 0.1844 0.0000
vt 0.3778 0.1844 0.0000
vt 0.3356 0.2974 0.0000
vt 0.0005 0.7404 0.0000
vt 0.1218 0.8530 0.0000
vt 0.0000 0.9380 0.0000
vt 0.5763 0.5837 0.0000
vt 0.4300 0.4849 0.0000
vt 0.5936 0.3490 0.0000
vt 0.7372 0.4492 0.0000
vt 0.9520 0.6786 0.0000
vt 0.8203 0.7819 0.0000
vt 0.8192 0.6095 0.0000
vt 0.9549 0.6114 0.0000
vt 0.5681 0.8407 0.0000
vt 0.4332 0.8263 0.0000
vt 0.4641 0.6567 0.0000
vt 0.5838 0.6994 0.0000
vt 0.4182 0.7210 0.0000
vt 0.2926 0.5903 0.0000
vt 0.4322 0.4893 0.0000
vt 0.4927 0.6062 0.0000
vt 0.0000 0.5641 0.0000
vt 0.0832 0.4622 0.0000
vt 0.1991 0.5898 0.0000
vt 0.1160 0.6626 0.0000
vt 0.1165 0.8597 0.0000
vt 0.2126 0.8054 0.0000
vt 0.2460 0.9745 0.0000
vt 0.1218 0.9726 0.0000
vt 0.6981 0.2758 0.0000
vt 0.8222 0.2713 0.0000
vt 0.7866 0.4400 0.0000
vt 0.6569 0.3891 0.0000
vt 0.6082 0.5603 0.0000
vt 0.7367 0.6139 0.0000
vt 0.6701 0.7298 0.0000
vt 0.5051 0.6672 0.0000
vt 0.3991 0.3868 0.0000
vt 0.4668 0.3678 0.0000
vt 0.8663 0.4958 0.0000
vt 0.7682 0.5195 0.0000
vt 0.8190 0.3300 0.0000
vt 0.9124 0.3297 0.0000
vt 0.5290 1.0000 0.0000
vt 0.4355 0.9989 0.0000
vt 0.4044 0.8511 0.0000
vt 0.4849 0.8333 0.0000
vt 0.9120 0.8689 0.0000
vt 0.8360 0.9005 0.0000
vt 0.7433 0.8260 0.0000
vt 0.7809 0.7571 0.0000
vt 0.7128 0.1618 0.0000
vt 0.7492 0.2313 0.0000
vt 0.6024 0.3508 0.0000
vt 0.5797 0.2713 0.0000
vt 0.9305 0.6978 0.0000
vt 0.9980 0.7455 0.0000
vt 0.9999 0.8746 0.0000
vt 0.9325 0.8701 0.0000
vt 0.8572 0.0291 0.0000
vt 0.9182 -0.0000 0.0000
vt 0.9673 0.1619 0.0000
vt 0.8818 0.1997 0.0000
vt 0.5745 0.8067 0.0000
vt 0.6430 0.7431 0.0000
vt 0.7470 0.8066 0.0000
vt 0.6819 0.8863 0.0000
vt 0.2389 0.3843 0.0000
vt 0.2961 0.5843 0.0000
vt 0.2389 0.5436 0.0000
vt 0.3982 0.3844 0.0000
vt 0.2389 0.1831 0.0000
vt 0.3515 0.0382 0.0000
vt 0.3982 0.1830 0.0000
vt 0.2389 0.0000 0.0000
vt 0.0632 0.0703 0.0000
vt 0.0000 0.1829 0.0000
vt 0.1262 0.4970 0.0000
vt 0.0000 0.3844 0.0000
vt 0.8492 0.0000 0.0000
vt 0.8051 0.1513 0.0000
vt 0.6674 0.0671 0.0000
vt 0.6729 0.0001 0.0000
vt 0.7115 0.1232 0.0000
vt 0.5960 0.2547 0.0000
vt 0.5222 0.1441 0.0000
vt 0.6073 0.0000 0.0000
vt 0.8321 0.1562 0.0000
vt 0.9247 0.2450 0.0000
vt 0.7635 0.2184 0.0000
vt 0.7001 0.1398 0.0000
vt 0.2962 0.3830 0.0000
vt 0.5312 0.1830 0.0000
vt 0.4586 0.3653 0.0000
vt 0.4845 0.0394 0.0000
vt 0.8179 0.9572 0.0000
vt 0.8658 0.8903 0.0000
vt 0.9988 0.8928 0.0000
vt 0.9509 0.9600 0.0000
vt 0.2724 0.7353 0.0000
vt 0.1754 0.6532 0.0000
vt 0.4450 0.7389 0.0000
vt 0.4014 0.8527 0.0000
vt 0.2251 0.8559 0.0000
vt 0.2985 0.7342 0.0000
vt 0.9967 0.3060 0.0000
vt 0.9990 0.5036 0.0000
vt 0.9030 0.3802 0.0000
vt 0.9226 0.3001 0.0000
vt 0.2282 0.7887 0.0000
vt 0.0209 0.7567 0.0000
vt 0.0811 0.6783 0.0000
vt 0.1685 0.6443 0.0000
vt 0.7145 0.7847 0.0000
vt 0.7361 0.6285 0.0000
vt 0.8100 0.6530 0.0000
vt 0.8046 0.7441 0.0000
vt 0.7576 0.5086 0.0000
vt 0.8204 0.5941 0.0000
vt 0.5853 0.8178 0.0000
vt 0.6705 0.9523 0.0000
vt 0.6001 0.9764 0.0000
vt 0.5326 0.9099 0.0000
# 138 texture coords

o Sphere001
g Sphere001
s 1
f 1/1/1 2/2/2 3/3/3 
f 1/4/1 3/5/3 4/6/4 
f 1/4/1 4/6/4 5/7/5 
f 6/8/6 7/9/7 8/10/8 
f 6/8/6 8/10/8 9/11/9 
f 6/12/6 9/13/9 10/14/10 
f 6/15/6 10/16/10 11/17/11 
f 6/18/6 11/19/11 12/20/12 
f 12/21/12 13/22/13 14/23/14 15/24/15 
f 16/25/16 17/26/17 18/27/18 19/28/19 
f 19/29/19 18/30/18 20/31/20 21/32/21 
f 7/33/7 22/34/22 23/35/23 8/36/8 
f 8/37/8 23/38/23 24/39/24 9/40/9 
f 9/41/9 24/42/24 25/43/25 10/44/10 
f 10/45/10 25/46/25 26/47/26 11/48/11 
f 11/49/11 26/50/26 13/51/13 12/52/12 
f 13/22/13 27/53/27 28/54/28 14/23/14 
f 17/55/17 29/56/29 30/57/30 18/58/18 
f 18/59/18 30/60/30 31/61/31 20/62/20 
f 22/63/22 32/64/32 33/65/33 23/66/23 
f 23/67/23 33/68/33 34/69/34 24/70/24 
f 24/71/24 34/72/34 35/73/35 25/74/25 
f 25/75/25 35/76/35 36/77/36 26/78/26 
f 26/79/26 36/80/36 27/81/27 13/82/13 
f 37/83/37 28/84/28 27/85/27 
f 37/83/37 38/86/38 28/84/28 
f 37/87/37 32/88/32 38/89/38 
f 37/87/37 33/90/33 32/88/32 
f 37/87/37 34/91/34 33/90/33 
f 37/87/37 35/92/35 34/91/34 
f 37/83/37 36/93/36 35/94/35 
f 37/83/37 27/85/27 36/93/36 
s off
f 39/95/39 15/96/15 16/97/16 19/98/19 
f 15/99/15 14/100/14 17/101/17 16/102/16 
f 14/103/14 28/104/28 29/105/29 17/106/17 
f 28/107/28 38/89/38 30/108/30 29/109/29 
f 38/89/38 32/88/32 31/110/31 30/108/30 
f 32/111/32 22/112/22 20/113/20 31/114/31 
f 22/34/22 7/33/7 21/115/21 20/116/20 
f 7/117/7 39/118/39 19/119/19 21/120/21 
f 6/121/6 12/122/12 2/123/2 1/124/1 
f 12/125/12 15/126/15 3/127/3 2/128/2 
f 15/129/15 39/130/39 4/131/4 3/132/3 
f 39/130/39 7/133/7 5/134/5 4/131/4 
f 7/135/7 6/136/6 1/137/1 5/138/5 
# 29 polygons - 16 triangles

